<svg width="512" height="513" viewBox="0 0 512 513" fill="none" xmlns="http://www.w3.org/2000/svg">
<rect x="57.4023" y="217.117" width="45.7451" height="182.541" rx="22.8725" fill="#074B34"/>
<rect width="45.6627" height="182.871" rx="22.8313" transform="matrix(0.500902 0.865504 -0.866545 0.499098 450.691 323.6)" fill="#074B34"/>
<rect width="45.6627" height="182.871" rx="22.8313" transform="matrix(0.500902 -0.865504 0.866545 0.499098 212.941 61.9277)" fill="#074B34"/>
<path d="M149.56 123.311C138.757 116.841 135.153 102.916 141.461 92.0174V92.0174C147.825 81.0209 161.891 77.2178 172.929 83.5092L254.384 129.934L284.48 149.484C286.274 150.65 287.972 151.958 289.557 153.395L300.651 163.456C302.843 165.444 304.807 167.669 306.506 170.09L310.157 175.29C313.107 179.491 315.217 184.221 316.374 189.222L319.118 201.089C319.171 201.319 319.198 201.553 319.198 201.789V201.789C319.198 204.257 321.94 205.739 324.013 204.39L354.269 184.707L426.372 144.156C433.535 140.127 442.395 140.66 449.012 145.518V145.518C458.007 152.122 460.203 164.623 453.997 173.902L451.932 176.99C449.879 180.058 447.166 182.631 443.991 184.52L369.511 228.819L300.626 269.49C296.949 271.661 292.472 272.006 288.508 270.423V270.423C283.132 268.277 279.682 262.997 279.878 257.218L281.369 213.402C281.488 209.899 280.404 206.461 278.298 203.658V203.658C277.423 202.495 276.387 201.461 275.22 200.588L270.879 197.34L263.524 191.569L244.462 180.152L206.34 157.319L149.56 123.311Z" fill="#074B34"/>
<path d="M185.99 421.611C185.774 434.224 175.487 444.336 162.872 444.336V444.336C150.143 444.336 139.809 434.048 139.751 421.32L139.326 327.818L141.249 292.059C141.364 289.914 141.652 287.782 142.109 285.684L145.289 271.104C145.922 268.204 146.875 265.383 148.132 262.693L150.806 256.971C152.983 252.312 156.038 248.116 159.805 244.613L168.73 236.313C168.902 236.153 169.092 236.013 169.295 235.896V235.896C171.435 234.664 171.35 231.549 169.147 230.434L136.933 214.136L60.4796 169.054C56.3143 166.598 53.1015 162.806 51.3628 158.294V158.294C44.5297 140.561 62.4348 123.361 79.8789 130.901L87.0066 133.982L167.606 178.912L237.211 218.009C241.025 220.151 243.626 223.944 244.25 228.273V228.273C245.065 233.927 242.383 239.512 237.462 242.411L204.236 261.983C198.947 265.098 194.581 269.563 191.585 274.921V274.921L190.895 276.5C189.158 280.475 188.262 284.767 188.262 289.105V289.105L187.881 311.281L187.121 355.632L185.99 421.611Z" fill="#074B34"/>
<path d="M427.37 237.344C438.388 231.246 452.278 235.095 458.586 245.994V245.994C464.95 256.991 461.218 271.045 450.238 277.436L369.208 324.595L337.189 340.821C335.279 341.789 333.295 342.602 331.255 343.253L316.973 347.807C314.152 348.706 311.239 349.291 308.287 349.548L301.948 350.102C296.826 350.55 291.664 350.009 286.745 348.507L275.071 344.944C274.845 344.875 274.628 344.781 274.424 344.664V344.664C272.281 343.429 269.623 345.058 269.758 347.523L271.717 383.504L270.862 466.737C270.781 474.616 266.333 481.798 259.31 485.389V485.389C247.892 491.226 233.925 485.708 229.589 473.647L228.461 470.508C227.558 467.996 227.078 465.353 227.04 462.685L225.802 374.616L224.938 294.786C224.891 290.512 226.836 286.461 230.2 283.821V283.821C234.747 280.253 241.044 279.899 245.971 282.935L279.475 303.578C282.824 305.642 286.681 306.734 290.614 306.734V306.734C293.089 306.734 295.543 306.302 297.867 305.456L300.202 304.607L306.403 302.943C309.545 302.1 312.571 300.878 315.415 299.304L330.574 290.915L369.457 269.396L427.37 237.344Z" fill="#074B34"/>
</svg>
