<svg width="199" height="40" viewBox="0 0 199 40" fill="none" xmlns="http://www.w3.org/2000/svg">
<path d="M72.867 1.26513H80.3918L93.1866 24.41L105.981 1.26513H113.343V39.2965H107.204V10.1483L95.9846 30.3321H90.2255L79.0063 10.1483V39.2965H72.867V1.26513Z" fill="#1C2B33"/>
<path d="M133.146 39.9758C130.303 39.9758 127.803 39.3464 125.649 38.0878C123.493 36.8291 121.813 35.086 120.609 32.8585C119.405 30.6308 118.803 28.0773 118.803 25.1979C118.803 22.2823 119.391 19.7016 120.569 17.4557C121.746 15.2104 123.38 13.4537 125.472 12.1855C127.564 10.9182 129.968 10.2843 132.684 10.284C135.383 10.284 137.705 10.9223 139.652 12.199C141.599 13.4761 143.097 15.2645 144.148 17.5643C145.198 19.8645 145.723 22.5629 145.724 25.6596V27.3437H124.888C125.268 29.6622 126.205 31.4868 127.7 32.8175C129.194 34.1487 131.082 34.8142 133.363 34.8141C135.192 34.8141 136.768 34.5425 138.09 33.9992C139.412 33.4559 140.653 32.6319 141.812 31.5273L145.072 35.5205C141.83 38.4909 137.854 39.976 133.146 39.9758ZM137.628 17.4148C136.342 16.102 134.658 15.4455 132.576 15.4453C130.547 15.4453 128.849 16.1154 127.482 17.4557C126.115 18.7959 125.25 20.5979 124.888 22.8616H139.829C139.648 20.5434 138.914 18.7278 137.628 17.4148Z" fill="#1C2B33"/>
<path d="M153.167 15.9889H147.517V10.9633H153.167V2.65081H159.089V10.9633H167.674V15.9889H159.089V28.7293C159.089 30.848 159.452 32.3602 160.176 33.2658C160.9 34.1716 162.141 34.6244 163.898 34.624C164.676 34.624 165.337 34.5923 165.881 34.529C166.424 34.4658 167.022 34.3798 167.674 34.2708V39.242C166.93 39.4572 166.172 39.6207 165.405 39.7312C164.528 39.8603 163.643 39.9238 162.757 39.9213C156.364 39.9213 153.167 36.4261 153.167 29.4356V15.9889Z" fill="#1C2B33"/>
<path d="M198.534 39.2965H192.721V35.3304C191.688 36.8156 190.375 37.961 188.782 38.7667C187.188 39.5723 185.377 39.9753 183.349 39.9758C180.85 39.9758 178.636 39.3373 176.707 38.0604C174.778 36.7837 173.261 35.0271 172.157 32.7905C171.052 30.5539 170.499 27.9958 170.5 25.1164C170.5 22.2188 171.061 19.6561 172.184 17.4284C173.307 15.2011 174.859 13.4535 176.843 12.1856C178.826 10.9182 181.103 10.2844 183.675 10.284C185.612 10.284 187.351 10.6599 188.89 11.4115C190.409 12.1461 191.724 13.2421 192.721 14.6033V10.9633H198.534V39.2965ZM192.612 20.8786C191.978 19.2667 190.977 17.9944 189.61 17.0617C188.243 16.1291 186.663 15.6628 184.87 15.6628C182.334 15.6628 180.315 16.514 178.812 18.2162C177.309 19.9186 176.557 22.2187 176.557 25.1163C176.557 28.0323 177.282 30.3414 178.731 32.0436C180.179 33.746 182.144 34.5971 184.626 34.597C186.454 34.597 188.084 34.1261 189.515 33.1843C190.946 32.243 191.978 30.9753 192.612 29.3812L192.612 20.8786Z" fill="#1C2B33"/>
<path d="M6.50471 26.3793C6.50471 28.6788 7.00943 30.4442 7.66911 31.5123C8.53404 32.9112 9.82408 33.5039 11.1393 33.5039C12.8356 33.5039 14.3874 33.083 17.378 28.9468C19.7738 25.6317 22.5968 20.9782 24.4963 18.061L27.7131 13.1186C29.9476 9.68612 32.534 5.8704 35.4995 3.28401C37.9204 1.17303 40.5319 0.000244141 43.1602 0.000244141C47.5728 0.000244141 51.7759 2.55731 54.9927 7.35312C58.5131 12.6055 60.222 19.2212 60.222 26.0484C60.222 30.1071 59.422 33.0892 58.0607 35.4453C56.7456 37.7238 54.1822 40.0003 49.8702 40.0003V33.5039C53.5623 33.5039 54.4838 30.1112 54.4838 26.2285C54.4838 20.6955 53.1937 14.5552 50.3518 10.1678C48.3351 7.05574 45.7215 5.15416 42.8461 5.15416C39.7361 5.15416 37.2335 7.49971 34.4209 11.6819C32.9256 13.9039 31.3906 16.6118 29.667 19.6672L27.7696 23.0285C23.9581 29.7866 22.9927 31.3259 21.0869 33.8662C17.7466 38.3144 14.8942 40.0003 11.1393 40.0003C6.6848 40.0003 3.86805 38.0715 2.12355 35.1647C0.699469 32.7961 0 29.6882 0 26.1469L6.50471 26.3793Z" fill="#0081FB"/>
<path d="M5.12878 7.81174C8.11098 3.21488 12.4146 0.000244141 17.3508 0.000244141C20.2094 0.000244141 23.0513 0.846324 26.0188 3.26937C29.2649 5.91858 32.7246 10.2809 37.0408 17.4704L38.5885 20.0505C42.3246 26.2746 44.4502 29.4767 45.6942 30.9866C47.2942 32.9259 48.4146 33.5039 49.8701 33.5039C53.5623 33.5039 54.4837 30.1112 54.4837 26.2285L60.222 26.0484C60.222 30.1071 59.422 33.0892 58.0607 35.4453C56.7455 37.7238 54.1822 40.0003 49.8701 40.0003C47.1895 40.0003 44.8146 39.418 42.1885 36.9406C40.1696 35.039 37.8094 31.661 35.9937 28.6243L30.5927 19.6023C27.8827 15.0746 25.3968 11.6987 23.9581 10.1699C22.4105 8.52589 20.4209 6.54055 17.2461 6.54055C14.6764 6.54055 12.4942 8.3437 10.668 11.1018L5.12878 7.81174Z" fill="url(#paint0_linear_8_22)"/>
<path d="M17.2461 6.54055C14.6764 6.54055 12.4942 8.3437 10.6681 11.1018C8.08585 14.9992 6.50471 20.8044 6.50471 26.3793C6.50471 28.6788 7.00943 30.4442 7.66911 31.5123L2.12355 35.1647C0.699469 32.7961 0 29.6882 0 26.1469C0 19.707 1.76753 12.995 5.12879 7.81174C8.11099 3.21488 12.4147 0.000244141 17.3508 0.000244141L17.2461 6.54055Z" fill="url(#paint1_linear_8_22)"/>
<defs>
<linearGradient id="paint0_linear_8_22" x1="12.7749" y1="24.5029" x2="54.2408" y2="26.5971" gradientUnits="userSpaceOnUse">
<stop stop-color="#0064E1"/>
<stop offset="0.4" stop-color="#0064E1"/>
<stop offset="0.83" stop-color="#0073EE"/>
<stop offset="1" stop-color="#0082FB"/>
</linearGradient>
<linearGradient id="paint1_linear_8_22" x1="9.42408" y1="29.1102" x2="9.42408" y2="13.8222" gradientUnits="userSpaceOnUse">
<stop stop-color="#0082FB"/>
<stop offset="1" stop-color="#0064E0"/>
</linearGradient>
</defs>
</svg>
