<svg width="269" height="35" viewBox="0 0 269 35" fill="none" xmlns="http://www.w3.org/2000/svg">
<g clip-path="url(#clip0_14_718)">
<path d="M184.471 0.0441513L177.667 0.0618134V34.9735H208.87C212.283 33.5253 214.111 31.0218 214.817 28.0989H184.453L184.471 0.0441513ZM235.388 7.02031H261.416C265.032 6.30503 267.726 3.11278 268.481 0.0264893H228.319C229.07 3.11278 231.803 6.30503 235.388 7.02031ZM151.096 6.92317C154.712 5.87233 157.758 3.11278 158.5 0.0529823H120.308V20.6812H151.568V27.9223L127.05 27.9444C123.204 29.0129 119.955 31.5914 118.325 35L120.308 34.9647H158.288V13.8243H127.05V6.92317H151.096ZM229.37 34.9647H236.139V20.9108H260.78V34.9647H267.544V13.8861L229.37 13.8508V34.9647ZM67.7041 6.99823H93.7278C97.3483 6.27854 100.037 3.08628 100.792 -3.8147e-06H60.6352C61.3858 3.08628 64.1144 6.27854 67.7041 6.99823ZM0 0.0794716C0.781506 3.13485 3.42627 6.24763 7.05122 7.03356H18.0055L18.5619 7.25432V34.894H25.4056V7.25432L26.0237 7.03356H36.9913C40.6516 6.08868 43.2389 3.13485 44.0116 0.0794716V0.0132446H0V0.0794716ZM67.7041 34.9691H93.7278C97.3483 34.245 100.037 31.0616 100.792 27.9709H60.6352C61.3858 31.0616 64.1144 34.245 67.7041 34.9691ZM67.7041 20.796H93.7278C97.3483 20.0807 100.037 16.8885 100.792 13.8022H60.6352C61.3858 16.8885 64.1144 20.0807 67.7041 20.796Z" fill="#E82127"/>
</g>
<defs>
<clipPath id="clip0_14_718">
<rect width="268.48" height="35" fill="white"/>
</clipPath>
</defs>
</svg>
