<svg width="512" height="513" viewBox="0 0 512 513" fill="none" xmlns="http://www.w3.org/2000/svg">
<rect y="1" width="512" height="512" rx="256" fill="white"/>
<rect x="56.4023" y="219.117" width="45.7454" height="182.541" rx="22.8727" fill="#074B34"/>
<rect width="45.6628" height="182.872" rx="22.8314" transform="matrix(0.500905 0.865502 -0.866547 0.499096 449.691 325.6)" fill="#074B34"/>
<rect width="45.6628" height="182.872" rx="22.8314" transform="matrix(0.500905 -0.865502 0.866547 0.499096 211.945 63.9277)" fill="#074B34"/>
<path d="M148.568 125.311C137.765 118.841 134.161 104.916 140.469 94.0174V94.0174C146.833 83.0209 160.899 79.2178 171.938 85.5092L253.393 131.934L283.489 151.484C285.284 152.65 286.981 153.958 288.566 155.395L299.661 165.457C301.852 167.444 303.816 169.669 305.516 172.09L309.167 177.29C312.116 181.491 314.227 186.221 315.383 191.222L318.127 203.089C318.18 203.319 318.207 203.553 318.207 203.789V203.789C318.207 206.257 320.949 207.739 323.022 206.39L353.279 186.707L425.382 146.156C432.546 142.127 441.405 142.66 448.023 147.518V147.518C457.018 154.122 459.213 166.623 453.008 175.902L450.943 178.99C448.89 182.058 446.177 184.631 443.001 186.52L368.521 230.819L299.635 271.49C295.958 273.661 291.481 274.006 287.517 272.423V272.423C282.141 270.277 278.691 264.997 278.888 259.218L280.378 215.402C280.497 211.899 279.414 208.461 277.307 205.658V205.658C276.432 204.495 275.396 203.461 274.23 202.588L269.888 199.34L262.533 193.569L243.471 182.152L205.349 159.319L148.568 125.311Z" fill="#074B34"/>
<path d="M184.994 423.611C184.777 436.224 174.491 446.336 161.875 446.336V446.336C149.147 446.336 138.812 436.048 138.754 423.319L138.329 329.818L140.252 294.059C140.367 291.914 140.655 289.782 141.113 287.684L144.292 273.104C144.925 270.204 145.878 267.383 147.135 264.693L149.809 258.971C151.986 254.312 155.042 250.116 158.808 246.613L167.734 238.313C167.906 238.153 168.095 238.013 168.299 237.896V237.896C170.438 236.664 170.354 233.549 168.151 232.434L135.936 216.136L59.4821 171.054C55.3168 168.598 52.1039 164.806 50.3652 160.294V160.294C43.532 142.561 61.4371 125.361 78.8813 132.901L86.0093 135.983L166.609 180.912L236.115 219.953C239.992 222.13 242.636 225.986 243.27 230.386V230.386C244.079 235.998 241.499 241.558 236.691 244.562L199.397 267.867C198.467 268.448 197.583 269.1 196.754 269.818V269.818C193.966 272.231 191.855 275.329 190.627 278.805L189.5 282L187.969 288.438C187.249 291.469 186.885 294.574 186.885 297.689V313.281L186.125 357.632L184.994 423.611Z" fill="#074B34"/>
<path d="M426.374 239.344C437.392 233.246 451.282 237.095 457.59 247.994V247.994C463.954 258.991 460.223 273.045 449.242 279.435L368.212 326.595L336.192 342.821C334.283 343.789 332.298 344.602 330.258 345.252L315.977 349.807C313.155 350.706 310.242 351.291 307.29 351.548L300.951 352.102C295.829 352.55 290.667 352.009 285.748 350.507L274.074 346.944C273.848 346.875 273.631 346.781 273.427 346.664V346.664C271.284 345.429 268.626 347.058 268.76 349.523L270.719 385.504L269.864 468.737C269.783 476.616 265.336 483.798 258.312 487.389V487.389C246.895 493.226 232.928 487.708 228.592 475.647L227.463 472.508C226.56 469.996 226.08 467.353 226.043 464.685L224.804 376.616L223.94 296.786C223.894 292.512 225.838 288.461 229.203 285.821V285.821C233.75 282.253 240.047 281.899 244.973 284.935L278.478 305.578C281.827 307.642 285.684 308.734 289.617 308.734V308.734C292.091 308.734 294.546 308.302 296.87 307.456L299.205 306.607L305.407 304.943C308.548 304.1 311.574 302.878 314.418 301.304L329.577 292.915L368.46 271.396L426.374 239.344Z" fill="#074B34"/>
</svg>
