<svg width="425" height="395" viewBox="0 0 425 395" fill="none" xmlns="http://www.w3.org/2000/svg">
<path d="M160.154 63.2944C182.797 21.1772 243.203 21.1773 265.846 63.2945L385.851 286.504C412.27 335.643 363.188 391.084 311.209 370.817L234.797 341.024C220.78 335.559 205.222 335.559 191.205 341.024L114.79 370.818C62.8111 391.084 13.7295 335.643 40.1482 286.504L160.154 63.2944Z" fill="#042F2E"/>
<path d="M179.258 79.1919C193.603 52.5326 231.841 52.5327 246.185 79.192L359.548 289.877C376.29 320.993 345.214 356.117 312.29 343.29L226.517 309.874C217.645 306.418 207.8 306.418 198.928 309.874L113.154 343.29C80.2288 356.117 49.1529 320.994 65.8958 289.877L179.258 79.1919Z" fill="white"/>
</svg>
