<svg width="500" height="500" viewBox="0 0 500 500" fill="none" xmlns="http://www.w3.org/2000/svg">
<g clip-path="url(#clip0_1781_51)">
<path d="M100 193.75H167.088V400H100V193.75ZM349.825 196.169C349.113 195.944 348.438 195.7 347.688 195.494C346.787 195.29 345.88 195.115 344.969 194.969C341.007 194.159 336.975 193.751 332.931 193.75C293.819 193.75 269.013 222.194 260.838 233.181V193.75H193.75V400H260.838V287.5C260.838 287.5 311.538 216.887 332.931 268.75V400H400V260.819C399.972 246.009 395.031 231.627 385.951 219.927C376.87 208.227 364.165 199.871 349.825 196.169Z" fill="#1976D2"/>
<path d="M132.812 165.625C150.934 165.625 165.625 150.934 165.625 132.812C165.625 114.691 150.934 100 132.812 100C114.691 100 100 114.691 100 132.812C100 150.934 114.691 165.625 132.812 165.625Z" fill="#1976D2"/>
</g>
<defs>
<clipPath id="clip0_1781_51">
<rect width="300" height="300" fill="white" transform="translate(100 100)"/>
</clipPath>
</defs>
</svg>
