<svg width="500" height="500" viewBox="0 0 500 500" fill="none" xmlns="http://www.w3.org/2000/svg">
<path d="M107.003 103.639L107.037 103.538L107.085 103.443C107.304 103.003 107.626 102.572 108.003 102.233C108.336 101.933 108.942 101.5 109.726 101.5C109.995 101.5 110.229 101.562 110.361 101.601C110.517 101.647 110.672 101.707 110.816 101.767C111.106 101.889 111.435 102.052 111.775 102.234C112.46 102.601 113.282 103.093 114.098 103.617C114.916 104.143 115.75 104.714 116.458 105.245C117.089 105.716 117.712 106.222 118.115 106.665C118.12 106.668 118.129 106.674 118.141 106.683C118.204 106.727 118.36 106.837 118.68 107.04C119.142 107.334 119.846 107.762 120.887 108.381C122.966 109.617 126.346 111.585 131.729 114.694L131.731 114.695C133.414 115.67 145.357 121.508 147.332 122.403C148.181 122.728 149.533 123.408 150.336 123.91C150.967 124.304 153.004 125.286 154.763 126.027L154.794 126.039L154.823 126.053C156.566 126.879 160.719 128.725 164.071 130.215C165.596 130.892 167.119 131.589 168.392 132.17C168.522 132.23 168.648 132.288 168.772 132.344C170.155 132.976 171.106 133.407 171.413 133.522C172.26 133.84 173.814 134.619 174.906 135.31C178.488 137.33 179.463 137.86 181.425 138.753C186.013 140.736 193.857 145.888 201.677 151.692C209.534 157.524 217.54 164.144 222.445 169.144L222.451 169.149L222.456 169.155C225.964 172.803 229.586 176.892 232.499 180.437C233.955 182.21 235.243 183.856 236.254 185.25C237.231 186.598 238.014 187.796 238.413 188.666C238.692 189.219 239.411 190.436 240.169 191.718C240.361 192.044 240.556 192.374 240.747 192.698C244.334 198.182 247.059 204.657 248.942 211.65C249.392 211.209 250.019 210.319 250.616 208.879L250.621 208.867L250.626 208.855C251.41 207.052 252.53 204.308 253.364 202.265C253.509 201.911 253.645 201.578 253.769 201.275L253.77 201.271C256.685 194.199 262.502 185.525 269.531 177.164C276.572 168.79 284.913 160.632 292.956 154.611C296.04 152.274 299.356 149.916 302.171 148.012C304.94 146.139 307.321 144.639 308.511 144.067C309.199 143.722 311.076 142.65 312.498 141.672L312.521 141.656L312.545 141.642C314.532 140.382 320.695 137.21 326.887 134.172C333.072 131.137 339.502 128.129 342.065 127.208C342.707 126.966 343.909 126.366 344.572 125.951L344.633 125.914L344.696 125.882C345.452 125.504 349.082 123.735 352.614 122.063L352.635 122.052L352.657 122.043C356.277 120.465 359.712 118.74 360.35 118.341L360.41 118.303L360.474 118.271C360.838 118.089 361.692 117.64 362.771 117.071C363.871 116.493 365.203 115.792 366.487 115.126L366.497 115.121L366.507 115.116C369.047 113.845 372.337 111.927 373.798 111.015C375.377 109.993 377.286 108.844 378.108 108.433L378.141 108.417L378.174 108.402C379.183 107.958 380.795 106.945 382.34 105.823C383.905 104.687 385.158 103.616 385.581 103.093C386.652 101.709 388.367 101.484 389.659 101.845C390.938 102.204 392.344 103.314 392.344 105.135C392.344 105.836 392.047 106.584 391.748 107.202C391.421 107.88 390.964 108.65 390.426 109.468C389.346 111.107 387.863 113.048 386.217 115.018C382.942 118.936 378.886 123.126 375.867 125.365L375.861 125.369L375.856 125.374C367.566 131.402 363.375 133.679 345.994 141.672L345.985 141.676L345.976 141.68C342.752 143.113 339.521 144.724 338.674 145.148C337.799 145.685 335.132 147.151 332.586 148.424C327.724 150.901 326.741 151.435 320.385 155.488C319.255 156.241 318.189 156.905 317.36 157.385C316.947 157.625 316.577 157.828 316.28 157.976C316.133 158.048 315.983 158.118 315.844 158.174C315.774 158.201 315.687 158.233 315.591 158.26C315.57 158.266 315.54 158.275 315.502 158.283C315.396 158.342 315.235 158.44 315.011 158.585C314.55 158.885 313.912 159.33 313.135 159.889C311.587 161.006 309.548 162.541 307.397 164.201C303.085 167.528 298.402 171.294 296.361 173.153C283.293 185.394 274.044 197.499 267.55 210.852L267.548 210.857C266.763 212.456 265.964 214.092 265.215 215.627C263.6 218.935 262.214 221.772 261.688 222.763C261.361 223.419 261.07 224.168 260.862 224.854C260.642 225.579 260.555 226.105 260.555 226.345C260.555 227.029 260.344 227.808 260.084 228.484C259.819 229.172 259.447 229.902 258.999 230.526C258.428 231.437 257.69 233.099 257.459 234.177C257.166 235.546 256.502 237.819 255.931 239.44C255.467 240.928 254.364 244.604 253.535 247.46L253.533 247.468L253.53 247.476C253.047 249.069 252.482 250.505 251.93 251.571C251.657 252.097 251.36 252.587 251.046 252.969C250.889 253.158 250.692 253.366 250.451 253.538C250.226 253.7 249.83 253.924 249.31 253.924C248.96 253.924 248.581 253.852 248.207 253.654C247.846 253.462 247.566 253.194 247.345 252.909C246.93 252.375 246.607 251.633 246.302 250.741C245.679 248.923 244.921 245.828 243.769 240.715C243.305 238.955 242.591 236.563 242.085 235.381L242.066 235.339L242.051 235.295C241.857 234.753 241.523 233.911 241.126 232.91C241.07 232.769 241.013 232.624 240.955 232.477C240.494 231.313 239.978 230 239.553 228.82C236.968 222.175 232.86 212.689 231.677 210.484C231.16 209.645 230.403 208.123 229.94 207.104C229.533 206.21 228.116 203.893 226.809 201.932C226.155 200.952 225.54 200.006 225.084 199.262C224.858 198.893 224.66 198.555 224.513 198.28C224.441 198.144 224.369 198 224.311 197.861C224.282 197.792 224.248 197.703 224.218 197.604C224.204 197.556 224.18 197.47 224.163 197.358C224.125 197.278 224.056 197.15 223.944 196.968C223.706 196.578 223.339 196.047 222.851 195.39C221.882 194.083 220.503 192.369 218.895 190.467C215.68 186.664 211.604 182.175 208.163 178.78L208.156 178.773C199.524 170.141 187.28 160.657 176.152 154.035L176.151 154.035C167.006 148.583 167.001 148.58 160.61 145.426C160.276 145.261 159.924 145.088 159.552 144.904C139.744 135.185 133.237 131.889 130.644 130.256L130.618 130.24L130.593 130.223C129.193 129.26 127.047 128.096 125.901 127.567C125.502 127.386 125.036 127.062 124.597 126.731C124.123 126.374 123.566 125.919 122.961 125.403C121.749 124.367 120.298 123.042 118.84 121.649C115.965 118.9 112.922 115.752 111.666 113.995C110.233 112.037 108.982 109.994 108.127 108.273C107.701 107.414 107.355 106.599 107.14 105.893C107.032 105.54 106.946 105.18 106.907 104.834C106.87 104.511 106.858 104.076 107.003 103.639ZM249.1 212.123C249.1 212.123 249.099 212.12 249.094 212.115C249.098 212.121 249.1 212.123 249.1 212.123ZM224.194 197.431C224.195 197.432 224.192 197.423 224.185 197.406C224.19 197.422 224.193 197.431 224.194 197.431Z" fill="#389295" stroke="#389295" stroke-width="3"/>
<mask id="path-2-outside-1_1783_51" maskUnits="userSpaceOnUse" x="38" y="104.447" width="204" height="296" fill="black">
<rect fill="white" x="38" y="104.447" width="204" height="296"/>
<path d="M43.4305 109.179C43.152 109.921 42.5952 120.13 42.224 131.824C41.5743 152.707 42.3168 167.278 44.7298 178.879C45.1938 181.385 46.0291 185.376 46.4932 187.696C48.0709 195.956 51.2264 205.423 56.0525 216.746C57.5374 220.18 64.1268 233.359 65.5189 235.772C73.6861 249.415 83.6166 261.109 95.6818 271.225C98.9301 274.01 102.735 277.258 104.035 278.372C105.241 279.578 106.726 280.506 107.097 280.506C107.561 280.506 109.51 281.62 111.366 283.012C116.1 286.725 117.121 287.189 129.928 293.593C141.158 299.161 141.436 299.254 144.314 297.955C145.891 297.119 147.84 295.449 148.583 294.057C149.696 291.829 149.696 291.272 148.397 289.138C147.005 286.725 146.077 286.261 133.455 279.949C125.659 276.051 125.381 275.866 118.884 271.782C106.726 263.986 94.8465 252.942 85.5656 240.691C82.4101 236.607 79.9043 233.08 79.9043 232.802C79.9043 232.523 78.8834 230.76 77.5841 228.904C76.2847 226.955 73.7789 222.222 71.9227 218.416C70.1594 214.518 68.0248 210.156 67.2823 208.764C66.6326 207.279 65.983 205.423 65.983 204.495C65.983 203.659 65.5189 202.453 64.9621 201.896C64.4052 201.339 63.57 199.205 63.1987 197.256C62.7347 195.307 61.9922 192.429 61.5282 190.944C59.7648 185.654 58.4655 179.807 57.6302 172.754C57.259 168.948 56.4237 164.122 55.9596 162.08C54.1963 155.491 53.6394 147.138 54.8459 146.396C55.4956 146.024 57.8158 147.509 60.6929 150.294C66.6326 155.955 73.3149 160.967 78.5122 163.565C79.5331 164.122 81.6676 165.329 83.1526 166.35C84.7303 167.371 86.7721 168.577 87.793 169.134C88.8139 169.691 92.155 171.547 95.2177 173.218C103.478 177.858 126.958 189.459 135.125 192.893C140.601 195.214 150.903 199.947 152.295 200.782C153.038 201.246 154.615 201.989 155.729 202.453C156.75 203.01 157.956 203.845 158.328 204.309C158.606 204.866 159.441 205.33 160.184 205.33C161.947 205.33 180.416 217.859 186.17 222.964C193.502 229.461 199.535 235.957 204.361 242.454C206.867 245.795 209.187 248.858 209.651 249.415C210.022 249.879 211.321 252.199 212.435 254.519C213.642 256.84 214.941 259.346 215.312 260.088C220.138 268.627 223.479 280.228 224.779 292.572C225.8 302.224 225.057 325.055 223.572 328.768C223.108 330.067 222.366 332.944 221.902 335.264C221.066 339.905 219.581 344.638 217.632 348.536C216.89 350.021 216.333 351.97 216.333 352.898C216.333 353.734 215.683 355.033 214.941 355.683C214.198 356.332 213.549 357.353 213.549 358.096C213.549 360.045 206.681 369.79 202.783 373.317C194.245 381.02 189.697 382.783 177.632 383.247C170.022 383.526 167.701 383.34 166.031 382.226C164.917 381.391 163.339 380.741 162.69 380.741C161.205 380.741 154.522 375.822 152.109 372.945C147.562 367.562 146.262 363.015 146.262 352.898C146.262 345.009 146.634 342.504 148.119 339.905C150.717 335.264 160.462 325.891 165.381 323.385C169.65 321.157 171.599 320.136 174.384 318.559C175.219 318.002 176.611 317.352 177.353 317.074C178.096 316.795 179.395 316.238 180.138 315.774C180.88 315.31 183.386 314.011 185.706 312.897C191.368 310.02 199.999 303.43 202.505 299.811C206.959 293.5 207.98 290.53 207.98 283.291C207.887 276.98 207.609 275.959 204.825 271.875C201.112 266.492 197.4 264.079 191.553 263.244C185.149 262.408 179.766 264.172 175.683 268.441C167.794 276.516 169.001 288.024 177.632 287.931C180.695 287.838 182.458 286.075 183.943 281.434C185.149 277.629 185.521 277.258 188.49 276.98C193.316 276.701 194.523 277.908 194.523 283.105C194.523 289.787 191.46 293.407 179.674 300.646C178.653 301.296 177.168 302.038 176.425 302.41C173.827 303.523 167.608 306.586 166.216 307.421C165.474 307.885 164.175 308.442 163.432 308.721C162.69 309.092 160.833 310.113 159.256 311.134C157.771 312.155 155.543 313.361 154.337 313.918C151.738 315.032 138.745 327.561 138.003 329.603C137.724 330.438 137.074 331.738 136.61 332.48C133.176 338.049 132.341 342.318 132.434 353.919C132.527 362.736 132.898 366.356 133.919 367.934C134.661 369.14 135.589 371.089 135.868 372.388C136.796 375.915 143.942 384.918 148.583 388.352C157.121 394.663 165.845 397.447 176.889 397.447C190.161 397.447 202.412 392.436 212.249 383.062C218.096 377.493 224.686 368.583 224.686 366.356C224.686 365.706 225.335 364.685 226.078 364.036C226.82 363.386 227.47 362.179 227.47 361.344C227.47 360.509 228.12 359.024 228.862 358.096C229.605 357.075 230.254 355.404 230.254 354.383C230.254 353.27 230.904 351.599 231.646 350.671C232.389 349.65 233.039 347.794 233.039 346.494C233.131 345.195 233.688 343.06 234.431 341.761C235.173 340.462 235.73 338.234 235.823 336.842C235.823 335.357 236.473 331.923 237.308 329.232C238.421 325.148 238.607 320.322 238.329 303.987C238.05 285.054 237.586 280.97 234.709 272.617C234.245 271.04 233.503 268.534 233.131 267.049C232.389 264.265 228.12 254.334 226.449 251.735C225.985 250.993 225.243 249.508 224.779 248.487C224.315 247.466 222.83 245.053 221.53 243.104C220.231 241.155 219.117 239.391 219.117 239.02C219.117 238.556 214.106 232.059 211.693 229.368C199.163 215.818 184.128 202.917 174.848 197.905C172.899 196.791 170.114 195.121 168.537 194.193C165.381 192.244 150.253 184.633 140.694 180.271C130.114 175.445 110.531 165.514 104.499 162.08C101.436 160.41 98.0948 158.461 97.0739 157.997C87.4218 152.892 67.932 138.507 59.9504 130.525C54.0107 124.492 50.5767 119.666 47.8853 113.077C45.8435 108.251 44.2658 106.858 43.4305 109.179Z"/>
</mask>
<path d="M43.4305 109.179C43.152 109.921 42.5952 120.13 42.224 131.824C41.5743 152.707 42.3168 167.278 44.7298 178.879C45.1938 181.385 46.0291 185.376 46.4932 187.696C48.0709 195.956 51.2264 205.423 56.0525 216.746C57.5374 220.18 64.1268 233.359 65.5189 235.772C73.6861 249.415 83.6166 261.109 95.6818 271.225C98.9301 274.01 102.735 277.258 104.035 278.372C105.241 279.578 106.726 280.506 107.097 280.506C107.561 280.506 109.51 281.62 111.366 283.012C116.1 286.725 117.121 287.189 129.928 293.593C141.158 299.161 141.436 299.254 144.314 297.955C145.891 297.119 147.84 295.449 148.583 294.057C149.696 291.829 149.696 291.272 148.397 289.138C147.005 286.725 146.077 286.261 133.455 279.949C125.659 276.051 125.381 275.866 118.884 271.782C106.726 263.986 94.8465 252.942 85.5656 240.691C82.4101 236.607 79.9043 233.08 79.9043 232.802C79.9043 232.523 78.8834 230.76 77.5841 228.904C76.2847 226.955 73.7789 222.222 71.9227 218.416C70.1594 214.518 68.0248 210.156 67.2823 208.764C66.6326 207.279 65.983 205.423 65.983 204.495C65.983 203.659 65.5189 202.453 64.9621 201.896C64.4052 201.339 63.57 199.205 63.1987 197.256C62.7347 195.307 61.9922 192.429 61.5282 190.944C59.7648 185.654 58.4655 179.807 57.6302 172.754C57.259 168.948 56.4237 164.122 55.9596 162.08C54.1963 155.491 53.6394 147.138 54.8459 146.396C55.4956 146.024 57.8158 147.509 60.6929 150.294C66.6326 155.955 73.3149 160.967 78.5122 163.565C79.5331 164.122 81.6676 165.329 83.1526 166.35C84.7303 167.371 86.7721 168.577 87.793 169.134C88.8139 169.691 92.155 171.547 95.2177 173.218C103.478 177.858 126.958 189.459 135.125 192.893C140.601 195.214 150.903 199.947 152.295 200.782C153.038 201.246 154.615 201.989 155.729 202.453C156.75 203.01 157.956 203.845 158.328 204.309C158.606 204.866 159.441 205.33 160.184 205.33C161.947 205.33 180.416 217.859 186.17 222.964C193.502 229.461 199.535 235.957 204.361 242.454C206.867 245.795 209.187 248.858 209.651 249.415C210.022 249.879 211.321 252.199 212.435 254.519C213.642 256.84 214.941 259.346 215.312 260.088C220.138 268.627 223.479 280.228 224.779 292.572C225.8 302.224 225.057 325.055 223.572 328.768C223.108 330.067 222.366 332.944 221.902 335.264C221.066 339.905 219.581 344.638 217.632 348.536C216.89 350.021 216.333 351.97 216.333 352.898C216.333 353.734 215.683 355.033 214.941 355.683C214.198 356.332 213.549 357.353 213.549 358.096C213.549 360.045 206.681 369.79 202.783 373.317C194.245 381.02 189.697 382.783 177.632 383.247C170.022 383.526 167.701 383.34 166.031 382.226C164.917 381.391 163.339 380.741 162.69 380.741C161.205 380.741 154.522 375.822 152.109 372.945C147.562 367.562 146.262 363.015 146.262 352.898C146.262 345.009 146.634 342.504 148.119 339.905C150.717 335.264 160.462 325.891 165.381 323.385C169.65 321.157 171.599 320.136 174.384 318.559C175.219 318.002 176.611 317.352 177.353 317.074C178.096 316.795 179.395 316.238 180.138 315.774C180.88 315.31 183.386 314.011 185.706 312.897C191.368 310.02 199.999 303.43 202.505 299.811C206.959 293.5 207.98 290.53 207.98 283.291C207.887 276.98 207.609 275.959 204.825 271.875C201.112 266.492 197.4 264.079 191.553 263.244C185.149 262.408 179.766 264.172 175.683 268.441C167.794 276.516 169.001 288.024 177.632 287.931C180.695 287.838 182.458 286.075 183.943 281.434C185.149 277.629 185.521 277.258 188.49 276.98C193.316 276.701 194.523 277.908 194.523 283.105C194.523 289.787 191.46 293.407 179.674 300.646C178.653 301.296 177.168 302.038 176.425 302.41C173.827 303.523 167.608 306.586 166.216 307.421C165.474 307.885 164.175 308.442 163.432 308.721C162.69 309.092 160.833 310.113 159.256 311.134C157.771 312.155 155.543 313.361 154.337 313.918C151.738 315.032 138.745 327.561 138.003 329.603C137.724 330.438 137.074 331.738 136.61 332.48C133.176 338.049 132.341 342.318 132.434 353.919C132.527 362.736 132.898 366.356 133.919 367.934C134.661 369.14 135.589 371.089 135.868 372.388C136.796 375.915 143.942 384.918 148.583 388.352C157.121 394.663 165.845 397.447 176.889 397.447C190.161 397.447 202.412 392.436 212.249 383.062C218.096 377.493 224.686 368.583 224.686 366.356C224.686 365.706 225.335 364.685 226.078 364.036C226.82 363.386 227.47 362.179 227.47 361.344C227.47 360.509 228.12 359.024 228.862 358.096C229.605 357.075 230.254 355.404 230.254 354.383C230.254 353.27 230.904 351.599 231.646 350.671C232.389 349.65 233.039 347.794 233.039 346.494C233.131 345.195 233.688 343.06 234.431 341.761C235.173 340.462 235.73 338.234 235.823 336.842C235.823 335.357 236.473 331.923 237.308 329.232C238.421 325.148 238.607 320.322 238.329 303.987C238.05 285.054 237.586 280.97 234.709 272.617C234.245 271.04 233.503 268.534 233.131 267.049C232.389 264.265 228.12 254.334 226.449 251.735C225.985 250.993 225.243 249.508 224.779 248.487C224.315 247.466 222.83 245.053 221.53 243.104C220.231 241.155 219.117 239.391 219.117 239.02C219.117 238.556 214.106 232.059 211.693 229.368C199.163 215.818 184.128 202.917 174.848 197.905C172.899 196.791 170.114 195.121 168.537 194.193C165.381 192.244 150.253 184.633 140.694 180.271C130.114 175.445 110.531 165.514 104.499 162.08C101.436 160.41 98.0948 158.461 97.0739 157.997C87.4218 152.892 67.932 138.507 59.9504 130.525C54.0107 124.492 50.5767 119.666 47.8853 113.077C45.8435 108.251 44.2658 106.858 43.4305 109.179Z" fill="#389295"/>
<path d="M43.4305 109.179C43.152 109.921 42.5952 120.13 42.224 131.824C41.5743 152.707 42.3168 167.278 44.7298 178.879C45.1938 181.385 46.0291 185.376 46.4932 187.696C48.0709 195.956 51.2264 205.423 56.0525 216.746C57.5374 220.18 64.1268 233.359 65.5189 235.772C73.6861 249.415 83.6166 261.109 95.6818 271.225C98.9301 274.01 102.735 277.258 104.035 278.372C105.241 279.578 106.726 280.506 107.097 280.506C107.561 280.506 109.51 281.62 111.366 283.012C116.1 286.725 117.121 287.189 129.928 293.593C141.158 299.161 141.436 299.254 144.314 297.955C145.891 297.119 147.84 295.449 148.583 294.057C149.696 291.829 149.696 291.272 148.397 289.138C147.005 286.725 146.077 286.261 133.455 279.949C125.659 276.051 125.381 275.866 118.884 271.782C106.726 263.986 94.8465 252.942 85.5656 240.691C82.4101 236.607 79.9043 233.08 79.9043 232.802C79.9043 232.523 78.8834 230.76 77.5841 228.904C76.2847 226.955 73.7789 222.222 71.9227 218.416C70.1594 214.518 68.0248 210.156 67.2823 208.764C66.6326 207.279 65.983 205.423 65.983 204.495C65.983 203.659 65.5189 202.453 64.9621 201.896C64.4052 201.339 63.57 199.205 63.1987 197.256C62.7347 195.307 61.9922 192.429 61.5282 190.944C59.7648 185.654 58.4655 179.807 57.6302 172.754C57.259 168.948 56.4237 164.122 55.9596 162.08C54.1963 155.491 53.6394 147.138 54.8459 146.396C55.4956 146.024 57.8158 147.509 60.6929 150.294C66.6326 155.955 73.3149 160.967 78.5122 163.565C79.5331 164.122 81.6676 165.329 83.1526 166.35C84.7303 167.371 86.7721 168.577 87.793 169.134C88.8139 169.691 92.155 171.547 95.2177 173.218C103.478 177.858 126.958 189.459 135.125 192.893C140.601 195.214 150.903 199.947 152.295 200.782C153.038 201.246 154.615 201.989 155.729 202.453C156.75 203.01 157.956 203.845 158.328 204.309C158.606 204.866 159.441 205.33 160.184 205.33C161.947 205.33 180.416 217.859 186.17 222.964C193.502 229.461 199.535 235.957 204.361 242.454C206.867 245.795 209.187 248.858 209.651 249.415C210.022 249.879 211.321 252.199 212.435 254.519C213.642 256.84 214.941 259.346 215.312 260.088C220.138 268.627 223.479 280.228 224.779 292.572C225.8 302.224 225.057 325.055 223.572 328.768C223.108 330.067 222.366 332.944 221.902 335.264C221.066 339.905 219.581 344.638 217.632 348.536C216.89 350.021 216.333 351.97 216.333 352.898C216.333 353.734 215.683 355.033 214.941 355.683C214.198 356.332 213.549 357.353 213.549 358.096C213.549 360.045 206.681 369.79 202.783 373.317C194.245 381.02 189.697 382.783 177.632 383.247C170.022 383.526 167.701 383.34 166.031 382.226C164.917 381.391 163.339 380.741 162.69 380.741C161.205 380.741 154.522 375.822 152.109 372.945C147.562 367.562 146.262 363.015 146.262 352.898C146.262 345.009 146.634 342.504 148.119 339.905C150.717 335.264 160.462 325.891 165.381 323.385C169.65 321.157 171.599 320.136 174.384 318.559C175.219 318.002 176.611 317.352 177.353 317.074C178.096 316.795 179.395 316.238 180.138 315.774C180.88 315.31 183.386 314.011 185.706 312.897C191.368 310.02 199.999 303.43 202.505 299.811C206.959 293.5 207.98 290.53 207.98 283.291C207.887 276.98 207.609 275.959 204.825 271.875C201.112 266.492 197.4 264.079 191.553 263.244C185.149 262.408 179.766 264.172 175.683 268.441C167.794 276.516 169.001 288.024 177.632 287.931C180.695 287.838 182.458 286.075 183.943 281.434C185.149 277.629 185.521 277.258 188.49 276.98C193.316 276.701 194.523 277.908 194.523 283.105C194.523 289.787 191.46 293.407 179.674 300.646C178.653 301.296 177.168 302.038 176.425 302.41C173.827 303.523 167.608 306.586 166.216 307.421C165.474 307.885 164.175 308.442 163.432 308.721C162.69 309.092 160.833 310.113 159.256 311.134C157.771 312.155 155.543 313.361 154.337 313.918C151.738 315.032 138.745 327.561 138.003 329.603C137.724 330.438 137.074 331.738 136.61 332.48C133.176 338.049 132.341 342.318 132.434 353.919C132.527 362.736 132.898 366.356 133.919 367.934C134.661 369.14 135.589 371.089 135.868 372.388C136.796 375.915 143.942 384.918 148.583 388.352C157.121 394.663 165.845 397.447 176.889 397.447C190.161 397.447 202.412 392.436 212.249 383.062C218.096 377.493 224.686 368.583 224.686 366.356C224.686 365.706 225.335 364.685 226.078 364.036C226.82 363.386 227.47 362.179 227.47 361.344C227.47 360.509 228.12 359.024 228.862 358.096C229.605 357.075 230.254 355.404 230.254 354.383C230.254 353.27 230.904 351.599 231.646 350.671C232.389 349.65 233.039 347.794 233.039 346.494C233.131 345.195 233.688 343.06 234.431 341.761C235.173 340.462 235.73 338.234 235.823 336.842C235.823 335.357 236.473 331.923 237.308 329.232C238.421 325.148 238.607 320.322 238.329 303.987C238.05 285.054 237.586 280.97 234.709 272.617C234.245 271.04 233.503 268.534 233.131 267.049C232.389 264.265 228.12 254.334 226.449 251.735C225.985 250.993 225.243 249.508 224.779 248.487C224.315 247.466 222.83 245.053 221.53 243.104C220.231 241.155 219.117 239.391 219.117 239.02C219.117 238.556 214.106 232.059 211.693 229.368C199.163 215.818 184.128 202.917 174.848 197.905C172.899 196.791 170.114 195.121 168.537 194.193C165.381 192.244 150.253 184.633 140.694 180.271C130.114 175.445 110.531 165.514 104.499 162.08C101.436 160.41 98.0948 158.461 97.0739 157.997C87.4218 152.892 67.932 138.507 59.9504 130.525C54.0107 124.492 50.5767 119.666 47.8853 113.077C45.8435 108.251 44.2658 106.858 43.4305 109.179Z" stroke="#389295" stroke-width="6" mask="url(#path-2-outside-1_1783_51)"/>
<mask id="path-3-outside-2_1783_51" maskUnits="userSpaceOnUse" x="257.205" y="104.375" width="204" height="297" fill="black">
<rect fill="white" x="257.205" y="104.375" width="204" height="297"/>
<path d="M451.453 111.911C450.432 114.231 449.597 116.273 449.597 116.459C449.597 117.758 443.007 126.111 438.738 130.473C430.942 138.269 411.638 152.562 401.8 157.759C400.779 158.316 398.088 159.801 395.768 161.1C390.756 164.07 367.183 175.857 358.18 180.034C348.528 184.488 333.493 192.006 330.337 193.955C328.853 194.883 325.975 196.554 324.026 197.667C317.251 201.287 302.495 213.26 294.42 221.427C287.089 228.944 279.757 237.669 279.757 238.875C279.757 239.154 278.643 240.917 277.344 242.866C276.044 244.815 274.559 247.228 274.095 248.249C273.631 249.27 272.796 250.94 272.146 251.961C269.362 256.88 269.548 256.509 267.32 262.634C264.258 270.895 263.701 272.658 263.051 276.556C262.587 278.876 261.845 281.939 261.288 283.331C259.617 287.508 259.988 323.518 261.659 329.086C262.401 331.592 263.051 334.841 263.051 336.418C263.144 337.903 263.701 340.224 264.443 341.523C265.186 342.822 265.743 344.957 265.835 346.256C265.835 347.556 266.485 349.412 267.227 350.433C267.97 351.361 268.62 352.939 268.62 353.867C268.62 355.445 269.919 358.414 272.425 362.869C272.889 363.612 273.631 365.097 274.095 366.21C279.664 379.018 293.585 390.712 308.991 395.724C318.365 398.787 332.379 397.487 342.867 392.661C350.848 389.042 361.521 378.09 362.913 372.15C363.285 370.851 364.12 368.809 364.955 367.603C365.976 365.839 366.347 362.405 366.44 353.588C366.533 342.08 365.698 337.811 362.264 332.242C361.8 331.5 361.15 330.2 360.872 329.365C360.129 327.323 347.136 314.794 344.537 313.68C343.331 313.123 341.196 311.917 339.618 310.896C338.133 309.875 336.184 308.854 335.442 308.483C334.699 308.204 333.4 307.647 332.658 307.183C331.266 306.348 325.047 303.285 322.449 302.172C321.706 301.8 320.221 301.058 319.2 300.408C307.414 293.169 304.351 289.549 304.351 282.867C304.351 277.763 305.465 276.556 310.012 276.556C313.446 276.556 314.56 277.67 315.395 282.032C316.695 289.178 325.233 289.828 328.017 283.053C330.152 277.855 326.161 269.224 319.664 265.233C315.488 262.634 303.98 262.356 301.288 264.862C300.36 265.697 299.154 266.347 298.597 266.347C298.04 266.347 296.091 268.574 294.235 271.359C291.172 275.999 290.894 276.927 290.894 283.238C290.894 296.046 298.411 305.234 315.952 314.051C322.727 317.392 324.398 318.32 327.832 320.177C328.667 320.641 331.173 321.94 333.4 323.147C339.061 326.024 347.878 334.284 350.384 338.924C352.148 342.358 352.519 344.307 352.519 352.66C352.612 362.777 351.312 367.324 346.765 372.707C344.352 375.584 337.669 380.503 336.184 380.503C335.535 380.503 333.957 381.153 332.843 381.988C331.173 383.102 328.853 383.288 321.242 383.009C309.827 382.545 306.578 381.431 299.061 375.399C293.214 370.665 285.511 360.92 285.418 358.136C285.325 357.301 284.676 356.094 283.933 355.445C283.191 354.795 282.541 353.496 282.541 352.66C282.541 351.732 281.984 349.783 281.242 348.298C279.293 344.4 277.808 339.667 276.972 335.026C276.508 332.706 275.766 329.829 275.302 328.53C274.838 327.23 274.095 320.548 273.817 313.68C272.796 293.076 275.209 277.02 281.242 265.14C281.984 263.655 282.541 261.985 282.541 261.242C282.541 260.593 283.191 259.572 283.933 258.922C284.676 258.272 285.325 257.251 285.325 256.602C285.325 252.982 301.66 232.378 310.662 224.768C313.353 222.448 315.674 220.313 315.952 219.942C316.231 219.478 321.057 216.137 326.625 212.331C335.163 206.67 352.24 197.575 363.749 192.563C374.143 188.108 395.025 177.806 403.656 172.98C406.719 171.309 410.06 169.453 411.081 168.896C412.102 168.339 414.237 167.133 415.721 166.112C417.299 165.091 419.341 163.885 420.362 163.328C425.559 160.729 432.241 155.717 438.181 150.056C441.058 147.272 443.379 145.787 444.028 146.158C445.235 146.9 444.678 155.253 442.914 161.843C442.45 163.885 441.615 168.711 441.244 172.516C440.409 179.569 439.109 185.416 437.346 190.707C436.882 192.192 436.139 195.069 435.675 197.018C435.304 198.967 434.469 201.101 433.912 201.658C433.355 202.215 432.891 203.422 432.891 204.257C432.891 205.185 432.241 207.041 431.592 208.526C430.849 209.918 428.715 214.28 426.951 218.178C425.095 221.984 422.589 226.717 421.29 228.666C419.991 230.522 418.97 232.286 418.97 232.564C418.97 233.956 406.626 249.084 400.965 254.56C395.025 260.5 382.218 270.802 379.062 272.194C378.32 272.565 376.463 273.679 374.886 274.607C373.401 275.628 368.946 277.948 365.141 279.804C361.336 281.661 356.788 283.888 355.117 284.723C353.354 285.651 351.312 287.415 350.477 288.807C349.178 291.034 349.178 291.591 350.291 293.819C351.034 295.211 352.983 296.881 354.561 297.717C357.438 299.016 357.716 298.923 368.946 293.355C381.568 287.136 382.682 286.487 387.415 282.96C389.178 281.661 391.406 280.268 392.334 279.99C393.169 279.619 393.911 278.969 393.911 278.412C393.911 277.948 394.561 277.484 395.304 277.484C396.046 277.484 396.696 277.113 396.696 276.742C396.696 276.278 398.459 274.7 400.686 273.122C409.039 266.997 421.104 254.003 428.529 242.959C433.355 235.72 433.448 235.441 437.903 226.717C445.42 211.682 450.154 198.781 452.381 187.458C452.845 185.138 453.68 181.147 454.144 178.641C455.536 171.866 457.207 154.418 457.3 146.529C457.3 137.898 456.093 112.468 455.536 109.683C454.887 106.435 453.402 107.27 451.453 111.911Z"/>
</mask>
<path d="M451.453 111.911C450.432 114.231 449.597 116.273 449.597 116.459C449.597 117.758 443.007 126.111 438.738 130.473C430.942 138.269 411.638 152.562 401.8 157.759C400.779 158.316 398.088 159.801 395.768 161.1C390.756 164.07 367.183 175.857 358.18 180.034C348.528 184.488 333.493 192.006 330.337 193.955C328.853 194.883 325.975 196.554 324.026 197.667C317.251 201.287 302.495 213.26 294.42 221.427C287.089 228.944 279.757 237.669 279.757 238.875C279.757 239.154 278.643 240.917 277.344 242.866C276.044 244.815 274.559 247.228 274.095 248.249C273.631 249.27 272.796 250.94 272.146 251.961C269.362 256.88 269.548 256.509 267.32 262.634C264.258 270.895 263.701 272.658 263.051 276.556C262.587 278.876 261.845 281.939 261.288 283.331C259.617 287.508 259.988 323.518 261.659 329.086C262.401 331.592 263.051 334.841 263.051 336.418C263.144 337.903 263.701 340.224 264.443 341.523C265.186 342.822 265.743 344.957 265.835 346.256C265.835 347.556 266.485 349.412 267.227 350.433C267.97 351.361 268.62 352.939 268.62 353.867C268.62 355.445 269.919 358.414 272.425 362.869C272.889 363.612 273.631 365.097 274.095 366.21C279.664 379.018 293.585 390.712 308.991 395.724C318.365 398.787 332.379 397.487 342.867 392.661C350.848 389.042 361.521 378.09 362.913 372.15C363.285 370.851 364.12 368.809 364.955 367.603C365.976 365.839 366.347 362.405 366.44 353.588C366.533 342.08 365.698 337.811 362.264 332.242C361.8 331.5 361.15 330.2 360.872 329.365C360.129 327.323 347.136 314.794 344.537 313.68C343.331 313.123 341.196 311.917 339.618 310.896C338.133 309.875 336.184 308.854 335.442 308.483C334.699 308.204 333.4 307.647 332.658 307.183C331.266 306.348 325.047 303.285 322.449 302.172C321.706 301.8 320.221 301.058 319.2 300.408C307.414 293.169 304.351 289.549 304.351 282.867C304.351 277.763 305.465 276.556 310.012 276.556C313.446 276.556 314.56 277.67 315.395 282.032C316.695 289.178 325.233 289.828 328.017 283.053C330.152 277.855 326.161 269.224 319.664 265.233C315.488 262.634 303.98 262.356 301.288 264.862C300.36 265.697 299.154 266.347 298.597 266.347C298.04 266.347 296.091 268.574 294.235 271.359C291.172 275.999 290.894 276.927 290.894 283.238C290.894 296.046 298.411 305.234 315.952 314.051C322.727 317.392 324.398 318.32 327.832 320.177C328.667 320.641 331.173 321.94 333.4 323.147C339.061 326.024 347.878 334.284 350.384 338.924C352.148 342.358 352.519 344.307 352.519 352.66C352.612 362.777 351.312 367.324 346.765 372.707C344.352 375.584 337.669 380.503 336.184 380.503C335.535 380.503 333.957 381.153 332.843 381.988C331.173 383.102 328.853 383.288 321.242 383.009C309.827 382.545 306.578 381.431 299.061 375.399C293.214 370.665 285.511 360.92 285.418 358.136C285.325 357.301 284.676 356.094 283.933 355.445C283.191 354.795 282.541 353.496 282.541 352.66C282.541 351.732 281.984 349.783 281.242 348.298C279.293 344.4 277.808 339.667 276.972 335.026C276.508 332.706 275.766 329.829 275.302 328.53C274.838 327.23 274.095 320.548 273.817 313.68C272.796 293.076 275.209 277.02 281.242 265.14C281.984 263.655 282.541 261.985 282.541 261.242C282.541 260.593 283.191 259.572 283.933 258.922C284.676 258.272 285.325 257.251 285.325 256.602C285.325 252.982 301.66 232.378 310.662 224.768C313.353 222.448 315.674 220.313 315.952 219.942C316.231 219.478 321.057 216.137 326.625 212.331C335.163 206.67 352.24 197.575 363.749 192.563C374.143 188.108 395.025 177.806 403.656 172.98C406.719 171.309 410.06 169.453 411.081 168.896C412.102 168.339 414.237 167.133 415.721 166.112C417.299 165.091 419.341 163.885 420.362 163.328C425.559 160.729 432.241 155.717 438.181 150.056C441.058 147.272 443.379 145.787 444.028 146.158C445.235 146.9 444.678 155.253 442.914 161.843C442.45 163.885 441.615 168.711 441.244 172.516C440.409 179.569 439.109 185.416 437.346 190.707C436.882 192.192 436.139 195.069 435.675 197.018C435.304 198.967 434.469 201.101 433.912 201.658C433.355 202.215 432.891 203.422 432.891 204.257C432.891 205.185 432.241 207.041 431.592 208.526C430.849 209.918 428.715 214.28 426.951 218.178C425.095 221.984 422.589 226.717 421.29 228.666C419.991 230.522 418.97 232.286 418.97 232.564C418.97 233.956 406.626 249.084 400.965 254.56C395.025 260.5 382.218 270.802 379.062 272.194C378.32 272.565 376.463 273.679 374.886 274.607C373.401 275.628 368.946 277.948 365.141 279.804C361.336 281.661 356.788 283.888 355.117 284.723C353.354 285.651 351.312 287.415 350.477 288.807C349.178 291.034 349.178 291.591 350.291 293.819C351.034 295.211 352.983 296.881 354.561 297.717C357.438 299.016 357.716 298.923 368.946 293.355C381.568 287.136 382.682 286.487 387.415 282.96C389.178 281.661 391.406 280.268 392.334 279.99C393.169 279.619 393.911 278.969 393.911 278.412C393.911 277.948 394.561 277.484 395.304 277.484C396.046 277.484 396.696 277.113 396.696 276.742C396.696 276.278 398.459 274.7 400.686 273.122C409.039 266.997 421.104 254.003 428.529 242.959C433.355 235.72 433.448 235.441 437.903 226.717C445.42 211.682 450.154 198.781 452.381 187.458C452.845 185.138 453.68 181.147 454.144 178.641C455.536 171.866 457.207 154.418 457.3 146.529C457.3 137.898 456.093 112.468 455.536 109.683C454.887 106.435 453.402 107.27 451.453 111.911Z" fill="#389295"/>
<path d="M451.453 111.911C450.432 114.231 449.597 116.273 449.597 116.459C449.597 117.758 443.007 126.111 438.738 130.473C430.942 138.269 411.638 152.562 401.8 157.759C400.779 158.316 398.088 159.801 395.768 161.1C390.756 164.07 367.183 175.857 358.18 180.034C348.528 184.488 333.493 192.006 330.337 193.955C328.853 194.883 325.975 196.554 324.026 197.667C317.251 201.287 302.495 213.26 294.42 221.427C287.089 228.944 279.757 237.669 279.757 238.875C279.757 239.154 278.643 240.917 277.344 242.866C276.044 244.815 274.559 247.228 274.095 248.249C273.631 249.27 272.796 250.94 272.146 251.961C269.362 256.88 269.548 256.509 267.32 262.634C264.258 270.895 263.701 272.658 263.051 276.556C262.587 278.876 261.845 281.939 261.288 283.331C259.617 287.508 259.988 323.518 261.659 329.086C262.401 331.592 263.051 334.841 263.051 336.418C263.144 337.903 263.701 340.224 264.443 341.523C265.186 342.822 265.743 344.957 265.835 346.256C265.835 347.556 266.485 349.412 267.227 350.433C267.97 351.361 268.62 352.939 268.62 353.867C268.62 355.445 269.919 358.414 272.425 362.869C272.889 363.612 273.631 365.097 274.095 366.21C279.664 379.018 293.585 390.712 308.991 395.724C318.365 398.787 332.379 397.487 342.867 392.661C350.848 389.042 361.521 378.09 362.913 372.15C363.285 370.851 364.12 368.809 364.955 367.603C365.976 365.839 366.347 362.405 366.44 353.588C366.533 342.08 365.698 337.811 362.264 332.242C361.8 331.5 361.15 330.2 360.872 329.365C360.129 327.323 347.136 314.794 344.537 313.68C343.331 313.123 341.196 311.917 339.618 310.896C338.133 309.875 336.184 308.854 335.442 308.483C334.699 308.204 333.4 307.647 332.658 307.183C331.266 306.348 325.047 303.285 322.449 302.172C321.706 301.8 320.221 301.058 319.2 300.408C307.414 293.169 304.351 289.549 304.351 282.867C304.351 277.763 305.465 276.556 310.012 276.556C313.446 276.556 314.56 277.67 315.395 282.032C316.695 289.178 325.233 289.828 328.017 283.053C330.152 277.855 326.161 269.224 319.664 265.233C315.488 262.634 303.98 262.356 301.288 264.862C300.36 265.697 299.154 266.347 298.597 266.347C298.04 266.347 296.091 268.574 294.235 271.359C291.172 275.999 290.894 276.927 290.894 283.238C290.894 296.046 298.411 305.234 315.952 314.051C322.727 317.392 324.398 318.32 327.832 320.177C328.667 320.641 331.173 321.94 333.4 323.147C339.061 326.024 347.878 334.284 350.384 338.924C352.148 342.358 352.519 344.307 352.519 352.66C352.612 362.777 351.312 367.324 346.765 372.707C344.352 375.584 337.669 380.503 336.184 380.503C335.535 380.503 333.957 381.153 332.843 381.988C331.173 383.102 328.853 383.288 321.242 383.009C309.827 382.545 306.578 381.431 299.061 375.399C293.214 370.665 285.511 360.92 285.418 358.136C285.325 357.301 284.676 356.094 283.933 355.445C283.191 354.795 282.541 353.496 282.541 352.66C282.541 351.732 281.984 349.783 281.242 348.298C279.293 344.4 277.808 339.667 276.972 335.026C276.508 332.706 275.766 329.829 275.302 328.53C274.838 327.23 274.095 320.548 273.817 313.68C272.796 293.076 275.209 277.02 281.242 265.14C281.984 263.655 282.541 261.985 282.541 261.242C282.541 260.593 283.191 259.572 283.933 258.922C284.676 258.272 285.325 257.251 285.325 256.602C285.325 252.982 301.66 232.378 310.662 224.768C313.353 222.448 315.674 220.313 315.952 219.942C316.231 219.478 321.057 216.137 326.625 212.331C335.163 206.67 352.24 197.575 363.749 192.563C374.143 188.108 395.025 177.806 403.656 172.98C406.719 171.309 410.06 169.453 411.081 168.896C412.102 168.339 414.237 167.133 415.721 166.112C417.299 165.091 419.341 163.885 420.362 163.328C425.559 160.729 432.241 155.717 438.181 150.056C441.058 147.272 443.379 145.787 444.028 146.158C445.235 146.9 444.678 155.253 442.914 161.843C442.45 163.885 441.615 168.711 441.244 172.516C440.409 179.569 439.109 185.416 437.346 190.707C436.882 192.192 436.139 195.069 435.675 197.018C435.304 198.967 434.469 201.101 433.912 201.658C433.355 202.215 432.891 203.422 432.891 204.257C432.891 205.185 432.241 207.041 431.592 208.526C430.849 209.918 428.715 214.28 426.951 218.178C425.095 221.984 422.589 226.717 421.29 228.666C419.991 230.522 418.97 232.286 418.97 232.564C418.97 233.956 406.626 249.084 400.965 254.56C395.025 260.5 382.218 270.802 379.062 272.194C378.32 272.565 376.463 273.679 374.886 274.607C373.401 275.628 368.946 277.948 365.141 279.804C361.336 281.661 356.788 283.888 355.117 284.723C353.354 285.651 351.312 287.415 350.477 288.807C349.178 291.034 349.178 291.591 350.291 293.819C351.034 295.211 352.983 296.881 354.561 297.717C357.438 299.016 357.716 298.923 368.946 293.355C381.568 287.136 382.682 286.487 387.415 282.96C389.178 281.661 391.406 280.268 392.334 279.99C393.169 279.619 393.911 278.969 393.911 278.412C393.911 277.948 394.561 277.484 395.304 277.484C396.046 277.484 396.696 277.113 396.696 276.742C396.696 276.278 398.459 274.7 400.686 273.122C409.039 266.997 421.104 254.003 428.529 242.959C433.355 235.72 433.448 235.441 437.903 226.717C445.42 211.682 450.154 198.781 452.381 187.458C452.845 185.138 453.68 181.147 454.144 178.641C455.536 171.866 457.207 154.418 457.3 146.529C457.3 137.898 456.093 112.468 455.536 109.683C454.887 106.435 453.402 107.27 451.453 111.911Z" stroke="#389295" stroke-width="6" mask="url(#path-3-outside-2_1783_51)"/>
</svg>
