<svg width="124" height="38" viewBox="0 0 124 38" fill="none" xmlns="http://www.w3.org/2000/svg">
<path d="M50.3651 17.09C54.2598 18.0368 55.8476 19.5069 55.8476 22.1649C55.8476 25.3098 53.4448 27.3421 49.7259 27.3421C47.0973 27.3421 44.6604 26.4083 42.6798 24.64C42.6392 24.6037 42.6143 24.553 42.6106 24.4986C42.6068 24.4442 42.6245 24.3905 42.6598 24.349L44.4099 22.2672C44.4278 22.246 44.4497 22.2284 44.4744 22.2157C44.4991 22.203 44.5261 22.1953 44.5537 22.1931C44.5814 22.1909 44.6093 22.1943 44.6357 22.203C44.6621 22.2117 44.6865 22.2255 44.7075 22.2437C46.4099 23.7174 47.9318 24.3454 49.7971 24.3454C51.4771 24.3454 52.5209 23.618 52.5209 22.4489C52.5209 21.3934 52.0046 20.8036 48.9456 20.0991C45.3526 19.2299 43.2726 18.1056 43.2726 14.9271C43.2726 11.9634 45.6836 9.89342 49.1343 9.89342C51.4807 9.89342 53.49 10.5885 55.2736 12.0192C55.3595 12.0886 55.3771 12.2133 55.313 12.3038L53.7517 14.5032C53.7354 14.5258 53.7148 14.5449 53.691 14.5595C53.6673 14.5741 53.6409 14.5839 53.6133 14.5883C53.5858 14.5926 53.5576 14.5915 53.5305 14.585C53.5034 14.5785 53.4779 14.5666 53.4554 14.5502C51.957 13.4329 50.528 12.8907 49.0861 12.8907C47.5995 12.8907 46.5998 13.6052 46.5998 14.6666C46.5998 15.7898 47.1702 16.325 50.3657 17.0882L50.3651 17.09ZM64.2608 13.938C62.6496 13.938 61.3276 14.5731 60.2368 15.8727V14.4085C60.2368 14.353 60.2147 14.2997 60.1755 14.2605C60.1362 14.2212 60.083 14.1991 60.0274 14.1991H57.166C57.1104 14.1991 57.0572 14.2212 57.0179 14.2605C56.9787 14.2997 56.9566 14.353 56.9566 14.4085V30.6799C56.9566 30.7946 57.0507 30.8887 57.166 30.8887H60.028C60.1439 30.8887 60.238 30.7946 60.238 30.6794V25.5427C61.3282 26.7659 62.6508 27.3645 64.2626 27.3645C67.2587 27.3645 70.2902 25.0593 70.2902 20.6513C70.2902 16.2432 67.257 13.938 64.2608 13.938ZM66.96 20.6519C66.96 22.8959 65.5781 24.4624 63.5987 24.4624C61.6405 24.4624 60.1645 22.8247 60.1645 20.6519C60.1645 18.479 61.6405 16.8413 63.5987 16.8413C65.5463 16.8413 66.96 18.4437 66.96 20.6519ZM78.0607 13.938C74.2031 13.938 71.1817 16.9077 71.1817 20.7007C71.1817 24.4513 74.1819 27.3898 78.0125 27.3898C81.8837 27.3898 84.9145 24.4295 84.9145 20.6519C84.9145 16.8871 81.9042 13.938 78.0607 13.938ZM78.0601 24.4854C76.0078 24.4854 74.4612 22.8371 74.4612 20.6513C74.4612 18.4566 75.9549 16.8642 78.0131 16.8642C80.0772 16.8642 81.6355 18.5125 81.6355 20.6995C81.6355 22.8929 80.1313 24.4854 78.0601 24.4854ZM93.152 14.1991C93.2678 14.1991 93.3613 14.2932 93.3613 14.4085V16.8683C93.3614 16.8958 93.356 16.923 93.3456 16.9484C93.3351 16.9738 93.3198 16.9969 93.3004 17.0163C93.281 17.0358 93.2579 17.0512 93.2326 17.0617C93.2072 17.0722 93.18 17.0777 93.1525 17.0777H90.0035V22.9941C90.0035 23.9291 90.414 24.3454 91.3325 24.3454C91.917 24.3486 92.4934 24.2093 93.012 23.9397C93.0441 23.9238 93.0796 23.9163 93.1154 23.918C93.1511 23.9197 93.1859 23.9304 93.2163 23.9493C93.2467 23.9681 93.2718 23.9944 93.2893 24.0256C93.3067 24.0569 93.3159 24.0921 93.316 24.1278V26.4695C93.316 26.5442 93.2749 26.6147 93.2102 26.6518C92.4075 27.1063 91.556 27.318 90.5286 27.318C88.0041 27.318 86.7239 26.0143 86.7239 23.4416V17.0782H85.3479C85.3205 17.0782 85.2933 17.0727 85.268 17.0621C85.2427 17.0516 85.2198 17.0361 85.2004 17.0167C85.1811 16.9972 85.1658 16.9742 85.1554 16.9488C85.145 16.9235 85.1396 16.8963 85.1397 16.8689V14.4085C85.1397 14.2932 85.2326 14.1991 85.3479 14.1991H86.7239V10.9789C86.7239 10.8637 86.818 10.7696 86.9345 10.7696H89.7959C89.9118 10.7696 90.0053 10.8637 90.0053 10.9789V14.1991H93.1543H93.152ZM109.015 14.2115C109.101 14.2115 109.179 14.2644 109.21 14.3467L112.553 23.0699L115.605 14.3514C115.62 14.3103 115.647 14.2746 115.682 14.2493C115.718 14.2241 115.76 14.2104 115.804 14.2103H118.783C118.817 14.2103 118.851 14.2186 118.881 14.2346C118.911 14.2506 118.937 14.2737 118.956 14.302C118.976 14.3302 118.987 14.3628 118.991 14.3967C118.995 14.4307 118.99 14.465 118.977 14.4967L114.012 27.328C112.983 29.976 111.814 30.9604 109.701 30.9604C108.571 30.9604 107.657 30.7264 106.643 30.1783C106.597 30.1532 106.562 30.1111 106.545 30.0608C106.528 30.0105 106.532 29.9558 106.554 29.9078L107.524 27.7791C107.536 27.7528 107.553 27.7293 107.575 27.7099C107.596 27.6905 107.621 27.6756 107.648 27.6662C107.675 27.6574 107.704 27.6543 107.733 27.657C107.762 27.6597 107.79 27.6682 107.815 27.682C108.358 27.979 108.889 28.129 109.394 28.129C110.017 28.129 110.474 27.9243 110.939 26.8929L106.846 17.0782H104.173V26.8958C104.173 27.0117 104.079 27.1057 103.964 27.1057H101.102C101.074 27.1057 101.047 27.1003 101.021 27.0898C100.996 27.0792 100.973 27.0637 100.953 27.0442C100.934 27.0247 100.919 27.0016 100.908 26.9761C100.898 26.9506 100.892 26.9234 100.892 26.8958V17.0782H99.5176C99.4621 17.0778 99.409 17.0555 99.3697 17.0163C99.3304 16.977 99.3082 16.9238 99.3077 16.8683V14.3967C99.3077 14.2809 99.4018 14.1868 99.517 14.1868H100.892V13.5811C100.892 10.7667 102.289 9.27773 104.933 9.27773C106.019 9.27773 106.744 9.4512 107.312 9.6188C107.401 9.64644 107.46 9.72822 107.46 9.81992V12.2309C107.461 12.2643 107.453 12.2972 107.438 12.327C107.423 12.3568 107.401 12.3826 107.374 12.4022C107.348 12.4218 107.316 12.4346 107.283 12.4396C107.25 12.4446 107.217 12.4416 107.185 12.4309C106.648 12.2521 106.169 12.1333 105.573 12.1333C104.573 12.1333 104.126 12.6526 104.126 13.8163V14.2115H109.014H109.015ZM97.7641 14.1991C97.8792 14.1991 97.9734 14.2932 97.9734 14.4085V26.8952C97.9734 27.0105 97.8793 27.1046 97.7635 27.1046H94.9014C94.8458 27.1046 94.7925 27.0825 94.7532 27.0433C94.7138 27.004 94.6916 26.9508 94.6915 26.8952V14.4085C94.6915 14.2932 94.7856 14.1991 94.9008 14.1991H97.7629H97.7641ZM96.3474 8.51385C96.8917 8.51385 97.4137 8.73007 97.7986 9.11495C98.1835 9.49984 98.3997 10.0218 98.3997 10.5661C98.3997 11.1104 98.1835 11.6325 97.7986 12.0173C97.4137 12.4022 96.8917 12.6184 96.3474 12.6184C95.8031 12.6184 95.2811 12.4022 94.8962 12.0173C94.5114 11.6325 94.2951 11.1104 94.2951 10.5661C94.2951 10.0218 94.5114 9.49984 94.8962 9.11495C95.2811 8.73007 95.8031 8.51385 96.3474 8.51385ZM121.421 18.2132C121.156 18.2142 120.894 18.1628 120.649 18.0619C120.404 17.9611 120.181 17.8128 119.994 17.6255C119.807 17.4383 119.659 17.2159 119.558 16.9711C119.457 16.7262 119.406 16.4639 119.407 16.1991C119.407 15.9333 119.459 15.67 119.561 15.4244C119.662 15.1788 119.812 14.9556 120 14.7677C120.188 14.5797 120.411 14.4306 120.657 14.3289C120.902 14.2272 121.165 14.1749 121.431 14.175C121.696 14.1739 121.958 14.2251 122.203 14.3258C122.448 14.4266 122.67 14.5748 122.858 14.7619C123.045 14.9491 123.193 15.1714 123.294 15.4162C123.395 15.6609 123.446 15.9232 123.445 16.1879C123.445 16.4539 123.393 16.7173 123.291 16.963C123.19 17.2088 123.041 17.4321 122.853 17.6202C122.665 17.8083 122.441 17.9575 122.196 18.0594C121.95 18.1612 121.687 18.2131 121.421 18.2132ZM121.431 14.3756C120.4 14.3756 119.619 15.1959 119.619 16.1997C119.619 17.2035 120.394 18.0127 121.421 18.0127C122.452 18.0127 123.234 17.1929 123.234 16.1885C123.234 15.1847 122.457 14.3756 121.431 14.3756ZM121.878 16.3955L122.447 17.1929H121.967L121.455 16.4614H121.014V17.1929H120.612V15.0789H121.555C122.045 15.0789 122.369 15.3306 122.369 15.7534C122.369 16.1003 122.169 16.312 121.878 16.3943V16.3955ZM121.537 15.4417H121.013V16.1097H121.537C121.799 16.1097 121.954 15.9815 121.954 15.7745C121.954 15.557 121.799 15.4417 121.537 15.4417ZM18.512 0C8.28804 0 3.54387e-08 8.40329 3.54387e-08 18.6278C-0.000587965 28.2348 7.31599 35.9901 16.6814 37.1662H20.3426C29.708 35.9901 37.0245 28.2348 37.0245 18.6272C37.0245 8.40329 28.7353 0 18.512 0ZM27.0017 26.7012C26.9229 26.8307 26.8192 26.9434 26.6968 27.0327C26.5743 27.1221 26.4354 27.1865 26.288 27.2221C26.1406 27.2577 25.9877 27.2639 25.8379 27.2403C25.6881 27.2167 25.5445 27.1638 25.4152 27.0846C21.0677 24.4278 15.5964 23.8279 9.15248 25.2998C9.00482 25.3338 8.85192 25.3383 8.70252 25.3131C8.55312 25.2879 8.41015 25.2335 8.2818 25.153C8.15345 25.0725 8.04223 24.9674 7.9545 24.8439C7.86678 24.7204 7.80427 24.5808 7.77055 24.433C7.73662 24.2853 7.73217 24.1323 7.75745 23.9829C7.78272 23.8334 7.83723 23.6904 7.91786 23.562C7.99848 23.4337 8.10364 23.3225 8.2273 23.2348C8.35096 23.1471 8.4907 23.0847 8.63852 23.0511C15.6905 21.4398 21.7392 22.1338 26.6189 25.1152C26.8798 25.2751 27.0666 25.5319 27.1382 25.8294C27.2099 26.1269 27.1612 26.44 27.0017 26.7012ZM29.2669 21.6604C29.0666 21.9864 28.7451 22.2196 28.3729 22.3087C28.0008 22.3978 27.6085 22.3355 27.2822 22.1355C22.3073 19.0776 14.7214 18.1914 8.83493 19.9785C8.46858 20.0891 8.07335 20.05 7.73576 19.8698C7.39817 19.6896 7.14574 19.383 7.03372 19.0171C6.80438 18.2526 7.23366 17.4487 7.99637 17.2176C14.7208 15.1771 23.0788 16.165 28.7929 19.6757C29.1189 19.8761 29.352 20.1977 29.441 20.5698C29.53 20.942 29.467 21.3342 29.2669 21.6604ZM29.4621 16.4114C23.4946 12.8678 13.6517 12.542 7.9552 14.2709C7.5157 14.4041 7.04129 14.3572 6.63634 14.1406C6.23138 13.924 5.92906 13.5554 5.79587 13.1159C5.66268 12.6764 5.70953 12.202 5.92612 11.7971C6.14272 11.3921 6.51131 11.0898 6.95081 10.9566C13.49 8.97194 24.3608 9.35535 31.2304 13.4323C31.426 13.5483 31.5969 13.7017 31.7332 13.8837C31.8695 14.0658 31.9686 14.2729 32.0249 14.4932C32.0811 14.7136 32.0934 14.9428 32.061 15.1679C32.0286 15.393 31.9522 15.6096 31.8361 15.8051C31.7202 16.0009 31.5668 16.1718 31.3847 16.3082C31.2026 16.4446 30.9955 16.5438 30.775 16.6001C30.5546 16.6563 30.3252 16.6686 30.1 16.6361C29.8749 16.6036 29.6577 16.5277 29.4621 16.4114Z" fill="#C9D1D9"/>
</svg>
